<?xml version="1.0" encoding="utf-8"?>
<!-- Generator: Adobe Illustrator 16.0.0, SVG Export Plug-In . SVG Version: 6.00 Build 0)  -->
<!DOCTYPE svg PUBLIC "-//W3C//DTD SVG 1.1//EN" "http://www.w3.org/Graphics/SVG/1.1/DTD/svg11.dtd">
<svg version="1.1" xmlns="http://www.w3.org/2000/svg" xmlns:xlink="http://www.w3.org/1999/xlink" x="0px" y="0px" width="1200px"
	 height="600px" viewBox="0 0 1200 600" enable-background="new 0 0 1200 600" xml:space="preserve">
<g id="Layer_1">
</g>
<g id="Layer_2">
</g>
<g id="Layer_3">
</g>
<g id="Layer_4">
	<g>
		<g>
			<path fill="#080907" d="M741.874,522.319c-14.193,0.471-38.527,1.363-40.61,0.042s4.339-4.255,22.556-7.217"/>
			<path fill="#080907" d="M712.544,507.991c0,0,0.613,7.049-3,7.799s-27.057,0.667-27.557-1.333s5.107-6.333,12.275-4v0.015
				l13.918-8.432"/>
			<path fill="none" stroke="#EAEAE8" stroke-miterlimit="10" d="M695.779,322.856c0.402,0.832,0.787,1.699,1.15,2.601
				c0,0-17,6.333-19,34.667c-2,28.333,0.666,93.333,13.666,127.333c0,0,1.256,17.159,2.667,23c2.335,9.666,7.335-4.167,15.002-5.312
				"/>
			<path fill="#EAEAE8" d="M732.39,319.162c2.137,3.119,3.54,5.31,3.54,5.31s9.333,7.333,13,14.333s17.001,39.333,19.334,54.333
				s1.332,40.668-7.334,63.001c-1.392,3.588-2.672,7.099-3.841,10.464c-6.105,17.583-9.159,31.202-9.159,31.202
				s19.334,13.667,18.334,16.667s-23.334,0-23.334,0s1.665,4,0.665,7s-19.667-1.667-23-11c0,0-5.68,0.784-11.334-5.306l0.004-0.006
				c-7.667,1.145-12.667,14.978-15.002,5.312c-1.411-5.841-2.667-23-2.667-23c-13-34-15.666-99-13.666-127.334
				c2-28.333,19-34.666,19-34.666c-0.363-0.902-0.748-1.769-1.15-2.602c-10.311-21.324-32.85-20.398-32.85-20.398
				c6.334-5.666,26.666-1.667,31.334-3.667c9.217-3.949,14-4.333,21,0c2.273,1.407,5.251,4.608,8.234,8.29
				c6.202,7.652,12.432,17.377,12.432,17.377s9.333,7.333,13,14.333s17.001,39.333,19.334,54.333s1.332,40.668-7.334,63.001
				c-1.392,3.588-2.672,7.099-3.841,10.464"/>
			<path fill="#080907" d="M747.93,497.79c0,0,19.334,13.667,18.334,16.667s-23.334,0-23.334,0
				C739.679,507.874,744.681,510.04,747.93,497.79z"/>
			<path fill="#080907" d="M695.779,322.856c-10.311-21.326-32.85-20.399-32.85-20.399c6.334-5.667,26.666-1.667,31.334-3.667
				c9.217-3.949,14-4.334,21,0c2.273,1.408,5.251,4.609,8.234,8.29l-0.001,0.001c-3.316-1.041-9.066-1.541-5.566,12.459
				c0,0-14.559,0.887-22.154,3.318"/>
			<path fill="#080907" d="M729.369,315.083c3.014,4.575,5.048,9.017,3.312,10.957c-4.25,4.75-5.75,3.25-5.75,3.25
				s-7.5-16.5-9.5,2.25c0,0,17.867,21.84,18.75,30.25s9,22.75,9,22.75s1.25,5.5-3,15.5s-11.5,32.5-9,47.25s5.5,24,10,19.25
				s-1.5-20.5,5.25-33s10.75-18.75,10.75-18.75s-3.5,5.75-4,10.5s0.562,36.107,1.906,41.304l0.002-0.006
				c1.169-3.365,2.449-6.876,3.841-10.464c8.666-22.333,9.667-48,7.334-63s-15.667-47.334-19.334-54.334s-13-14.334-13-14.334
				s-2.768-4.319-6.45-9.467"/>
		</g>
		<path fill="#E8AA80" d="M556.356,531.798c0,0,87-12.25,123.5-11.75s34.25,5,34.25-9s4-55.501-1.5-58.001s-15,32-30.75,33
			s-114.354-7.553-125.5-6"/>
		<path fill="#822419" d="M666.606,475.547c0,0-5.25,37.501-2.25,49.251c0,0,8.972-5.125,20.983-4.64s28.706,4.664,28.75-3.348
			s6.413-70.771-3.535-63.268s-13.228,23.777-25.228,25.277S666.606,475.547,666.606,475.547z"/>
		<path fill="#BF7F52" d="M570.386,479.186c0,0-9.738,40.925-6.009,51.519l0,0l-8.021,1.094
			C556.356,531.798,554.915,502.573,570.386,479.186"/>
		<path fill="#BF7F52" d="M659.029,485.414c0,0-76.565,7.418-109.744-0.85S659.029,485.414,659.029,485.414"/>
		<path fill="#0C6052" d="M459.165,350.241c-15.559,17.807-31.807,48.723-11.766,100.056c0,0-37.938,56.002,0.385,77.335
			s91.822,7.166,108.572,4.166c0,0-1.691-26.166,14.029-52.167c0,0-58.279-26.334-74.779-50.333c-16.5-24-24.5-59.5-24.5-59.5"/>
		<path fill="#023D32" d="M566.1,487.244c-6.274-0.611-12.001-1.48-16.814-2.68c-12.442-3.1-0.12-3.756,20.144-3.363"/>
		<path fill="#23171F" d="M447.399,450.297c0,0,39.864,6.119,53.119-6.441c13.255-12.559-4.079-5.559-4.079-5.559
			s-23.943,3.062-52.079,3.541"/>
		<g>
			<defs>
				<path id="SVGID_19_" d="M451.101,401.915c-8.979-26.395,1.536-50.047,16.448-59.617c20.775-13.334,10.791-30.042,10.791-30.042
					l25.488,30.271c0,0-4.317,13.104-2.353,23.771s30.096,38-9.369,76.667"/>
			</defs>
			<use xlink:href="#SVGID_19_"  overflow="visible" fill="#E8AA80"/>
			<clipPath id="SVGID_2_">
				<use xlink:href="#SVGID_19_"  overflow="visible"/>
			</clipPath>
			<path clip-path="url(#SVGID_2_)" fill="#BF7F52" d="M478.34,312.255c0,0,19.877,25.499,25.488,30.271s-2.353,10.667-2.353,10.667
				S480.737,337.713,478.34,312.255"/>
		</g>
		<path fill="#0C6052" d="M492.28,443.26c24.666-24.167,22.927-43.908,17.674-57.917l0.026,0.075c0,0-20.624,4.88-40.703-44.288
			c0,0-7.327,4.837-10.284,8.811"/>
		<path fill="#E8AA80" d="M484.703,397.631c10.211,25.922,49.574,58.902,49.574,58.902s11.913-9.951,23.435-18.037
			c11.522-8.086,16.275,6.842,20.246,17.414c3.971,10.574,23.259,19.904,10.213,20.525c-13.048,0.621-22.692-14.928-22.692-14.928
			s1.702,10.574-11.108,16.172c-12.812,5.598-22.363-6.219-22.363-6.219s-30.065-1.867-61.653-36.697
			c-8.902-9.817-14.469-19.881-17.476-29.551"/>
		<path fill="#0C6052" d="M490.772,396.741c-12.961-20.953-9.461-57.953-31.779-46.801l-0.003-0.004
			c-11.034,13.221-16.158,35.665-4.85,59.432"/>
		<path fill="#E8AA80" d="M535.779,343.264c13.36-9.475,26.965-24.982,29.641-34.479c1.766-6.266,4.941-16.955,6.884-27.887l0,0
			c2.375-13.365,3.316-28.418-1.002-40.756c-7.85-22.429-29.718-30.84-49.343-28.597s-40.371,4.485-45.979,22.429l-2.703,47.568
			c0,0-2.903-25.141-19.165-13.365c-16.26,11.775-0.561,40.186,21.307,39.811c0,0,28.037,42.615,43.176,42.615
			C523.414,350.604,529.54,347.688,535.779,343.264"/>
		<path fill="#BF7F52" d="M471.055,285.233c0,0-4.605-2.859-7.609,1.398c0,0,3.984-3.777,8.207,0.051"/>
		<g>
			<defs>
				<path id="SVGID_21_" d="M501.476,353.193c7.916,7.415,20.352,14.055,33.666,24.516c15.486,12.167,25.632,29.589,25.632,29.589
					c1.333-34,26.333-98,26.333-98c1,18.334-7.666,54-7.666,54c27.387-48.113,30.667-90.333,30.667-90.333
					c-5.149-31.704-39.645-86.208-48.616-88.452c-8.971-2.242-26.79,6.801-43.051,6.452s-18.33,23.927-18.33,23.927
					c3.628,18.965,31.221,36.92,42.996,41.406c0,0-13.933-12.805-18.062-25.754c0,0,41.562,32.254,45.341,56.139
					c-1.942,10.932-2.643,14.832-4.408,21.1c-2.676,9.494-16.556,25.889-29.916,35.363c0,0-14.695,10.618-22.492,6.198
					c-3.941-2.234-8.775-5.577-9.741-6.817C503.041,345.284,501.476,353.193,501.476,353.193z"/>
			</defs>
			<use xlink:href="#SVGID_21_"  overflow="visible" fill="#23171F"/>
			<clipPath id="SVGID_4_">
				<use xlink:href="#SVGID_21_"  overflow="visible"/>
			</clipPath>
		</g>
		<path fill="#C4C4C3" d="M659.029,481.973c0,0,3.622-109.966,3.483-113.376c-0.14-3.41,1.345-4.979,1.75-0.663
			c0.404,4.313-1.858,107.129-2.891,111.584C660.339,483.973,659.972,482.549,659.029,481.973z"/>
		<path fill="#C4C4C3" d="M542.848,479.514h117.899c0,0,1.254,4.664-7.347,4.844s-99.188,0.359-102.631,0
			C547.329,484,542.668,483.629,542.848,479.514"/>
		<path fill="#18514A" d="M579.44,363.297c0,0,42.627-69.203,3.896-152.102l0,0c0,0,25.395,39.852,26.771,61.769
			C611.258,291.289,589.524,350.048,579.44,363.297"/>
		<path fill="#18514A" d="M546.896,388.786c0,0,4.03-49.075,15.778-73.825c-16.336,24.716-19.067,51.733-20.817,68.62"/>
		<path fill="#BF7F52" d="M472.711,298.752c0,0,2.517-20.885-9.606-24.039c-11.214-2.918-10.759,13.543-1.868,18.576
			c0,0-3.087-2.82-4.921-6.744c-1.834-3.926-1.791-9.26,2.107-10.582C473.044,271.002,472.711,298.752,472.711,298.752z"/>
		<path fill="#23171F" d="M474.899,282.625l4.458,4.057c-2.378-8.982,3.565-31.875,3.565-31.875l4.756-10.721
			c3.566-6.953,1.486-15.336,1.486-15.336c3.566-2.877,9.51,4,9.51,4c0-1.775-3.566-8-3.566-8s5.386,5.674,11.187,4.592
			l-3.145-21.258c0,0-6.854-8.331-16.958-7.752l8.479,7.752l-16.801-3.557v3.557c0,0-13.67,17.273-24.964,20.119h12.482
			c0,0-4.755,12.695-12.482,18.492c-7.727,5.795,4.758,18.5,4.758,18.5"/>
		<circle fill="#23171F" cx="512.376" cy="283.167" r="5.534"/>
		<circle fill="#23171F" cx="558.843" cy="287.799" r="5.534"/>
		<g>
			<defs>
				<path id="SVGID_23_" d="M517.908,309.958c0,0,19.704,2.842,31.377,0.774c0,0-11.312,24.903-21.976,23.216
					C516.646,332.262,517.908,309.958,517.908,309.958z"/>
			</defs>
			<use xlink:href="#SVGID_23_"  overflow="visible" fill="#C54B4C"/>
			<clipPath id="SVGID_6_">
				<use xlink:href="#SVGID_23_"  overflow="visible"/>
			</clipPath>
			<path clip-path="url(#SVGID_6_)" fill="#E06969" d="M526.083,304.114c0,0,17.484,7.916,16.967,20.688
				c-0.519,12.772-19.124,14.068-19.124,14.068l-13.404-26.037"/>
			<path clip-path="url(#SVGID_6_)" fill="#FFFFFF" d="M551.616,311.167c0,0-11.374,11.358-36.906,0.188l1.379-3.245l33.032-1.356"
				/>
		</g>
		<path fill="#23171F" d="M551.142,274.444c-0.722,1.445,2.502,6.4,10.529,5.678c8.027-0.724,11.898-11.576,11.898-11.576
			s-5.689,5.148-11.599,5.098"/>
		<path fill="#23171F" d="M523.219,265.379c0.577-1.51-3.115-6.126-11.033-4.623c-7.919,1.504-10.71,12.684-10.71,12.684
			s5.157-5.68,11.044-6.207"/>
	</g>
	<rect fill="none" width="1200" height="600"/>
</g>
</svg>
