<?xml version="1.0" encoding="utf-8"?>
<!-- Generator: Adobe Illustrator 16.0.0, SVG Export Plug-In . SVG Version: 6.00 Build 0)  -->
<!DOCTYPE svg PUBLIC "-//W3C//DTD SVG 1.1//EN" "http://www.w3.org/Graphics/SVG/1.1/DTD/svg11.dtd">
<svg version="1.1" xmlns="http://www.w3.org/2000/svg" xmlns:xlink="http://www.w3.org/1999/xlink" x="0px" y="0px" width="1200px"
	 height="600px" viewBox="0 0 1200 600" enable-background="new 0 0 1200 600" xml:space="preserve">
<g id="Layer_1">
</g>
<g id="Layer_2">
</g>
<g id="Layer_3">
	<g>
		<path fill="#E8AA80" d="M601.873,532.699c3.183,2.383,7.27,4.469,12.467,6.104c25.44,8.002,37.771-5.643,52.771-14.318
			c15-8.678,34.605-17.012,34.605-17.012v-9.666l-102.188-13.25"/>
		<path fill="#822419" d="M665.547,493.473c0,0,10.563-5,29.897-7s24.334-1.334,24.334,14.334c0,15.666,6.668,25.717-3,29
			c-15.97,5.422-11-11.832-23-10.75c-12,1.084-19,11.779-19,11.779s-7.463-12.408-9.231-27.219"/>
		<path fill="#BF7F52" d="M643.483,500.568c0,0-12.603-1.512-25.204,18.488c0,0,7.204-19,25.204-20"/>
		<path fill="#E8AA80" d="M553.777,500.879c0,7.385,4.328,20.318,8.421,25.645c20.917,27.219,46.485,0.691,46.485,0.691
			l-1.971-48.908"/>
		<g>
			<defs>
				<path id="SVGID_11_" d="M559.535,291.608c0,0-14.364-19.035-55.15-3.352c-40.787,15.684,1.725,66.454,18.903,84.16
					c17.178,17.705,26.708,21.434,31.057,16.463c4.348-4.971,10.841-8.285,12.15-12.427c1.311-4.143-6.975-7.042-9.874-9.527
					s5.811-8.285,3.527-11.185c-2.284-2.9-6.371-10.201-24.625,0c-0.258-4.189-14.996-70.188-35.238-62.043
					c0,0,15.803,20.982,26.646,24.303s22.409,7.762,32.604,6.807"/>
			</defs>
			<use xlink:href="#SVGID_11_"  overflow="visible" fill="#E8AA80"/>
			<clipPath id="SVGID_2_">
				<use xlink:href="#SVGID_11_"  overflow="visible"/>
			</clipPath>
			<polyline clip-path="url(#SVGID_2_)" fill="#006050" points="556.029,326.14 542.588,323.134 536.422,281.057 558.639,286.829 
							"/>
		</g>
		<path fill="#BF7F52" d="M643.483,500.57c0,0-59.704-14.906-88.133,10.219c0,0-1.825-6.34-1.573-9.91
			c0,0,16.857-20.697,36.742-20.447"/>
		<g>
			<defs>
				<path id="SVGID_13_" d="M557.946,291.608c0,0-5.356,17.158-5.356,41.964c0,26.985,12.385,57.329,12.385,57.329
					s-17.195,44.406-19.695,59.906c-2.011,12.467-5.16,28.707-5.16,57.457c0,0,34.806-22.557,63.306-16.957
					c28.5,5.602,64.507,20.719,71.854,0c14.718-41.5-26.5-81.166-32.5-113.166s16.093-75.242,16.093-75.242"/>
			</defs>
			<use xlink:href="#SVGID_13_"  overflow="visible" fill="#006050"/>
			<clipPath id="SVGID_4_">
				<use xlink:href="#SVGID_13_"  overflow="visible"/>
			</clipPath>
			<path clip-path="url(#SVGID_4_)" fill="#23171F" d="M564.975,390.901c0,0,53.474,9.987,78.473-9.721c24.999-19.707,0,0,0,0
				l0.665-12.041c0,0-48.445,17.016-86.197,9.342"/>
		</g>
		<path fill="#E8AA80" d="M566.635,303.099c0,0,1.098,33.385,22.581,33.385c13.603,0,18.592-18.64,20.922-36.508"/>
		<path fill="#BF7F52" d="M601.873,532.699c-20.159-15.096-4.045-42.137-4.045-42.137s-18.125,28.211,2.71,42.986"/>
		<path fill="#BF7F52" d="M610.138,299.976c-8.562,6.207-18.231,10.831-27.693,10.831c-5.656,0-10.865-2.614-15.81-7.209"/>
		<path fill="#E8AA80" d="M540.934,242.407c0,0-5.36-26.58-19.864-13.853c-5.349,4.693-3,33.64,19.665,33.253
			c0,0,18.801,49,41.426,49c25.232,0,52.083-32.359,54.855-42.201c1.831-6.496,4.544-15.537,6.558-26.867l0,0
			c2.462-13.854,3.437-29.455-1.039-42.244c0,0-17.255-41.688-55.755-34.188s-43.5,11.5-45.5,22.5l-7,47.75"/>
		<path fill="#023D32" d="M606.713,317.328c0,0,9.931,21.034,37.275,28.52l0,0c0,0-12.859-39.277-24.987-47.681"/>
		<path fill="#BF7F52" d="M610.158,300.049c-8.562,6.207-18.252,10.758-27.714,10.758c-5.656,0-10.865-2.614-15.81-7.209
			c0,0-5.465-5.179-8.72-9.893l0,0c0,0,3.043,13.391,11.862,21.602s28.334,10,43.634-1.5"/>
		<g>
			<path fill="#080907" d="M464.932,521.395c0,0,0.491,5.779-1.174,7.635c-1.666,1.857-4.665,8.021,8.995,9.938s14.327,0,14.327,0
				s0.333-3.977,0-8.361c-0.335-4.383-18.658-17.377-18.658-17.377"/>
			<path fill="#080907" d="M451.143,529.029c0,0,2.952,4.523,4.284,6.635c1.334,2.111,0.334,4.219-10.993,2.887
				c-11.328-1.332-16.212-5.775-16.212-5.775l1.552-12.883l17.325-6.664"/>
			<path fill="#080907" d="M495.623,325.334c27.826,11.475,91.826-11.859,117.826-1.859c0,0-84.869,16.471-106.987,24.909"/>
			<path fill="#EAEAE8" d="M431.33,314.216c0,0,8.884-36.427,28.43-37.76s23.988,4.886,23.988,4.886s22.657-2.22,30.209,3.554
				c0,0-26.209-1.333-41.313,24.878c0,0,12.505,9.362,19.545,12.882c15.106,7.552,33.761,72.409-3.997,205.233
				c0,0-4.441,7.551-17.769-10.662c0,0-12.881,10.654-20.877,12.213c0,0-4.443-8.658-6.221-11.322c0,0-2.665,7.551-6.663,8.439
				s-8.44,2.221-8.44,6.219c0,0-9.773-12.438-11.55-21.766c-1.776-9.33-14.216-68.412-12.883-85.738c0,0-3.998,19.99-4.441,47.089
				c0,0-9.775-30.395-3.555-67.839c6.219-37.442,10.865-42.454,12.884-57.878C409.851,337.661,419.336,322.656,431.33,314.216z"/>
			<path fill="#080907" d="M403.789,424.928c0,0-3.998,19.992-4.441,47.089c0,0-9.775-30.395-3.555-67.839
				c6.219-37.443,10.865-42.453,12.884-57.878c1.174-8.982,10.659-23.988,22.653-32.429c0,0,0.24-0.991,0.733-2.653l0.094,0.024
				c0,0,3.28-3.58,7.611-3.58s-3.806,8.329-3.806,8.329s-16.496,7.028-21.069,15.852c-4.571,8.822-2.111,23.463-4.777,33.792
				c-2.665,10.328-5.658,39.982-6.327,59.637"/>
			<path fill="#080907" d="M437.992,296.283c4.659-9.415,11.838-19.149,21.768-19.826c19.546-1.333,23.988,4.886,23.988,4.886
				s22.657-2.22,30.209,3.554c0,0-26.209-1.333-41.313,24.878c-12.224-8.551-24.878-5.109-24.878-5.109s4.664-6.997,0-11.994
				c-4.665-4.998-9.768,3.612-9.768,3.612"/>
		</g>
		<path fill="#E8AA80" d="M668.818,269.894c0,0,24.853-12.874,43.235-8.739c38.059,8.371,21.06,65.85,26.508,71.418
			c5.448,5.566-16.873-4.021-16.873-4.021c-7-12.922-15.741-37.994-15.741-37.994l0,0c-17.828,7.676-41.551,11.061-48.168,20.25"/>
		<path fill="#023D32" d="M613.411,313.807c-2.225,1.672-4.538,3.062-6.896,4.193c1.69-5.564,2.815-11.84,3.622-18.024"/>
		<g>
			<defs>
				<path id="SVGID_15_" d="M610.144,299.983c12.447-9.646,24.379-22.527,26.872-31.377c1.466-5.199,3.495-12.028,5.281-20.357
					h-0.002c-39.662-18.721-47.137-66.672-47.137-66.672c-9.384,3.285-2.815,41.758-2.815,41.758l0,0
					c-18.768-22.521-20.804-72.058-10.184-79.293c10.62-7.234,23.163,2.4,50.136-14.734c17.299-10.99,4.15,19.427,20.572,31.156
					c16.422,11.73,38.474,36.127,37.065,66.154c-1.407,30.028-25.437,48.367-28.15,70.848c-2.335,19.343-2.836,52.918,2.497,59.342
					s-41.5-23-37.5-53c0,0-2.167,15,3.333,28c0,0-23.116-16.162-19.975-31.831"/>
			</defs>
			<use xlink:href="#SVGID_15_"  overflow="visible" fill="#23171F"/>
			<clipPath id="SVGID_6_">
				<use xlink:href="#SVGID_15_"  overflow="visible"/>
			</clipPath>
			<path clip-path="url(#SVGID_6_)" fill="#18514A" d="M648.205,155.647c7.574,9.785,29.906,53.334,21.24,81.293
				c-8.666,27.957-16.334,29.867-13.998,56.082c0,0-2.1-12.734,12.664-35.881c13.004-20.389,24.667-37.334-2-89"/>
			<path clip-path="url(#SVGID_6_)" fill="#18514A" d="M626.995,320.206l7.284,17.936l8.021,1.98
				c-11.146-20.354-10.917-61.15-10.917-61.15s-4.651,17.338-4.827,27.012C626.413,313.815,626.995,320.206,626.995,320.206z"/>
		</g>
		<path fill="#8C6F4E" d="M556.388,339.448l-2.522,54.42c0,0-8.705-13.849-6.946-28.611c1.757-14.764,5.435-25.445,5.435-25.445"/>
		<path fill="#8C6F4E" d="M587.616,333.572l4.919,74.735c0,0-14.021-17.582-13.889-38.021c0.133-20.438,3.514-35.598,3.514-35.598"
			/>
		<polyline fill="#DBBE54" points="556.161,371.579 609.461,363.688 607.075,349.807 553.777,357.698 		"/>
		<path fill="#8C6F4E" d="M617.838,327.654l15.035,101.653c0,0-15.836-21.051-17.965-37.891s-3.616-62.684-3.616-62.684"/>
		<path fill="#8C6F4E" d="M645.655,323.554l37.624,115.252c0,0-16.5-19-25-33s-17.518-81.633-17.518-81.633"/>
		<path fill="#8C6F4E" d="M669.392,324.145l86.388,112.162c0,0-24.75-9-38.375-24.5s-52.857-88-52.857-88"/>
		<path fill="#8C6F4E" d="M505.021,350.821c29.878-1.934,109.283-27.566,161.758-26.098c20.492,0.574,51,35,87.162,52.9
			s52.338,16.6,52.338,16.6l-87.446-55.633c0,0-39.054-18.867-52.554-19.715s-29.035,0.686-52.83,4.517
			s-96.887,20.817-108.92,24.909"/>
		<path fill="#E8AA80" d="M493.695,294.72c-20.929,20.134,14.33,61.966,29.593,77.696c17.178,17.705,26.708,21.434,31.057,16.463
			c4.348-4.971,10.841-8.285,12.15-12.427c1.311-4.143-6.975-7.042-9.874-9.527s5.811-8.285,3.527-11.185
			c-2.284-2.9-6.371-10.201-24.625,0c-0.899-14.595-17.866-69.032-35.238-62.043"/>
		<path fill="#23171F" d="M541.447,240.692l5.769,4.645c-3.076-10.284,4.612-36.493,4.612-36.493l6.155-12.274
			c4.615-7.961,1.923-17.559,1.923-17.559c4.614-3.293,12.306,4.579,12.306,4.579c0-2.032-4.613-9.159-4.613-9.159
			s6.967,6.496,14.473,5.258l-4.068-24.338c0,0-8.868-9.538-21.942-8.875l10.972,8.875l-21.74-4.072l2.239,5.844
			c0,0-19.928,18.005-34.541,21.262h16.151c0,0,2.152,4.448-5.059,14.042C515.779,203.473,541.447,240.692,541.447,240.692"/>
		<circle fill="#23171F" cx="567.732" cy="250.245" r="5.534"/>
		<path fill="#23171F" d="M619.189,255.778c0,0-3.785-3.221-10.088-0.874l-0.004-0.001c-0.167-0.494-0.267-1.021-0.287-1.57
			c-0.115-3.055,2.266-5.625,5.321-5.74c3.054-0.115,5.622,2.269,5.737,5.322c0.039,1.037-0.21,2.018-0.675,2.865"/>
		<path fill="#23171F" d="M603.484,230.489c-0.581-1.506,3.096-6.135,11.019-4.658c7.923,1.478,10.752,12.646,10.752,12.646
			s-5.175-5.661-11.063-6.168"/>
		<path fill="#23171F" d="M578.587,230.489c0.581-1.506-3.096-6.135-11.019-4.658c-7.923,1.478-10.752,12.646-10.752,12.646
			s5.175-5.661,11.063-6.168"/>
		<path fill="#BF7F52" d="M538.553,243.599c0,0-3.851-2.39-6.362,1.17c0,0,3.332-3.158,6.862,0.042"/>
		<path fill="#BF7F52" d="M539.938,254.904c0,0,2.104-17.463-8.031-20.101c-9.377-2.438-8.996,11.324-1.562,15.533
			c0,0-2.581-2.359-4.114-5.641c-1.534-3.281-1.498-7.74,1.762-8.846C540.217,231.702,539.938,254.904,539.938,254.904z"/>
		<path fill="#E06969" d="M608.186,277.352c0,0,10.171,3.391,5.492,11.281c-4.678,7.891-8.634-2.646-17.942-0.588"/>
		<path fill="#C54B4C" d="M603.008,283.624c0,0,5.52,0.539,7.409,1.722c0,0-4.619-2.821-5.989-2.849"/>
		<path fill="#C24837" d="M578.109,287.792c0,0,25.637,5.229,31.853-18.267C609.962,269.526,613.268,295.393,578.109,287.792z"/>
		<g>
			<defs>
				<path id="SVGID_17_" d="M724.346,341.022c0.168,0.75,0.107,1.625-0.279,2.642c-2.319,6.075-11.911,7.674-11.911,12.47
					c0,3.471,3.228,5.099,7.84,3.979h-0.011c0,0,1.923,9.29,11.675,4.494c5.161,2.379,8.974,2.577,11.789,1.634l0.041,0.124
					c1.599,0.32,4.157-0.319,7.674-1.277c3.517-0.96,10.552-22.383,1.599-23.021s-16.307-12.399-16.307-12.399h-8.312
					c0,0-8.632-5.857-12.79-4.882c-4.156,0.975-9.405,7.957-9.405,7.957l20.832,10.65"/>
			</defs>
			<use xlink:href="#SVGID_17_"  overflow="visible" fill="#E8AA80"/>
			<clipPath id="SVGID_8_">
				<use xlink:href="#SVGID_17_"  overflow="visible"/>
			</clipPath>
			<path clip-path="url(#SVGID_8_)" fill="#BF7F52" d="M743.448,366.24c0,0,6.414-6.015,7.414-14.181c0,0-0.654,9.872-7.332,15.164"
				/>
			<path clip-path="url(#SVGID_8_)" fill="#BF7F52" d="M731.659,364.606c0,0,10.705-7.549,10.871-16.465
				c0,0,1.166,9.832-11.584,17.75"/>
			<path clip-path="url(#SVGID_8_)" fill="#BF7F52" d="M719.995,360.112c0,0,14.036-4.888,13.953-18.888c0,0,1.5,13.417-13.953,20"
				/>
			<path clip-path="url(#SVGID_8_)" fill="#BF7F52" d="M724.415,342.225c0,0,0.2-2.836-0.633-4.752c0,0,0.666,3.586,0,4.752"/>
		</g>
		<path fill="#BF7F52" d="M524.181,316.848c0,0-4.9-11.723-14.57-20.124l0,0l0,0c0,0,10.249,7.706,15.416,20.54"/>
		<path fill="#BF7F52" d="M720.094,325.461c0,0,5.276,1.664,8.049,4.204l0,0c0,0-2.603-3.521-8.569-5.271"/>
		<path fill="#023D32" d="M568.108,313.622c-7.538-8.233-10.193-19.916-10.193-19.916s-1.668-2.345,0,0
			c1.668,2.344,8.72,9.893,8.72,9.893v-0.499c0,0,0.162,4.937,1.583,11.013"/>
	</g>
</g>
</svg>
