<?xml version="1.0" encoding="utf-8"?>
<!-- Generator: Adobe Illustrator 16.0.0, SVG Export Plug-In . SVG Version: 6.00 Build 0)  -->
<!DOCTYPE svg PUBLIC "-//W3C//DTD SVG 1.1//EN" "http://www.w3.org/Graphics/SVG/1.1/DTD/svg11.dtd">
<svg version="1.1" xmlns="http://www.w3.org/2000/svg" xmlns:xlink="http://www.w3.org/1999/xlink" x="0px" y="0px" width="1200px"
	 height="600px" viewBox="0 0 1200 600" enable-background="new 0 0 1200 600" xml:space="preserve">
<g id="Layer_1">
</g>
<g id="Layer_2">
	<g>
		<path fill="#BF7F52" d="M996.245,116.768c0,0-5.219,3.506-5.366,8.365"/>
		<path fill="#E8AA80" d="M922.476,254.106c12.32-23.597,58.637-115.925,67.06-113.819c8.781,2.195,14.713-3.154,14.713-3.154
			l0.225,0.107c2.845,1.242,7.372,0.824,10.528-5.076c5.05-9.439,1.054-12.051,1.054-12.051h0.002
			c0.95-7.573-6.411-8.262-6.411-8.262l-0.129-0.331c-1.637-3.644-7.688-2.407-7.688-2.407s14.928-5.928,14.928-24.589
			c0-18.661-11.415-12.953-12.513-3.732s-12.141,25.846-12.141,25.846l0.002-0.003c-2.845-2.083-7.112-1.768-12.011,1.6
			c-7.025,4.83-6.147,25.467-6.147,25.467c-11.415,11.416-76.167,91.125-76.167,91.125"/>
		<path fill="#BF7F52" d="M994.643,118.957c5.649-4.798,7.349-7.438,7.349-7.438s-4.205,4.244-6.215,5.833
			c1.265-6.238-1.523-8.957-3.672-10.717l-0.014-0.014c1.242,0.904,2.214,2.264,2.85,4.025c1.428,3.952,0.648,7.195-1.083,9.132"/>
		<path fill="#BF7F52" d="M993.857,119.778c-4.411,4.601-0.874,9.554,1.861,9.968c0.412,0.062,0.916,0.055,1.486-0.036
			c2.684-0.396,13.472-5.72,12.44-17.858c0,0,2.531,9.028-7.654,16.225c-4.146,2.928-7.429,2.709-9.438,0.7
			c-4.171-4.171,0.77-9.275,3.223-11.425"/>
		<path fill="#BF7F52" d="M1004.248,137.133c-1.451-0.693-2.109-2.793-2.109-2.793l-0.428,0.066c0,0,0.615,2.168,2.165,3.029"/>
		<path fill="#BF7F52" d="M998.627,129.787c-0.911,1.045,0.069,4.607,3.225,4.109c12.381-1.949,14.205-13.783,14.205-13.783
			s-0.465,11.165-13.669,14.177c-4.485,1.022-5.21-3.448-4.275-4.299"/>
		<path fill="#BF7F52" d="M982.366,112.703c0,0,4.906,14.064,12.582,5.406l0,0C994.948,118.109,988.066,128.402,982.366,112.703z"/>
		<path fill="#E8AA80" d="M821.4,427.358c0,0-13.136,71.303-23.229,89.807c-10.093,18.503-17.703,29.156,11.615,28.035
			c29.317-1.121,28.196-1.121,23.71-31.399c-4.485-30.279,16.82-71.844,26.354-79.938"/>
		<path fill="#E8AA80" d="M885.06,432.1c0,0,60.433,73.851,53.497,87.308s-15.346,27.637,9.325,25.874
			c24.672-1.763,48.782,4.966,19.064-47.181s-37.468-76.565-37.468-76.565"/>
		<path fill="#BF7F52" d="M885.06,432.1l44.419-10.564l2.138,5.823c0,0-15.73,9.124-39.576,13.482"/>
		<path fill="#BF7F52" d="M853.066,442.304c-10.525-1.192-21.605-3.803-32.907-8.437l1.241-6.509l38.449,6.504"/>
		<g>
			<defs>
				<path id="SVGID_5_" d="M860.515,214.999c0,0,5.504,23.117-7.58,24.612c-13.083,1.495-23.55,10.84-28.783,22.802
					c-3.509,8.021-5.673,18.057-6.719,23.8l0.004,0.001c-2.81-9.13-6.711-19.298-11.602-26.043c0,0,11.962-12.71,10.841-18.69
					c-1.122-5.981-7.477-13.831-10.841-16.821c-3.364-2.991-14.205-2.617-17.195,0c-2.99,2.616-2.617,5.232-10.093,8.971
					s5.12,22.47,7.476,26.914c17.832,33.644,4.893,67.57,28.271,72.702c8.607,1.889,16.557-8.843,20.98-16.558l-0.002-0.001
					c-0.208,3.965-0.206,7.861,0.094,11.517c0,0-16.448,51.959-50.092,69.902c0,0,19.435,42.938,93.827,34.713
					c74.393-8.224,85.229-36.956,85.229-36.956s-56.071-44.856-62.053-70.276c-5.981-25.419,17.356-65.984,18.41-68.033
					c0.519-1.008,1.117-2.162,1.788-3.447v-39.915"/>
			</defs>
			<use xlink:href="#SVGID_5_"  overflow="visible" fill="#E8AA80"/>
			<clipPath id="SVGID_2_">
				<use xlink:href="#SVGID_5_"  overflow="visible"/>
			</clipPath>
			<path clip-path="url(#SVGID_2_)" fill="#006050" d="M922.476,254.106c-0.671,1.285-1.27,2.439-1.788,3.447
				c-1.054,2.049-24.392,42.614-18.41,68.033c5.981,25.42,62.053,70.276,62.053,70.276s-10.836,28.732-85.229,36.956
				c-74.393,8.225-93.827-34.713-93.827-34.713c33.644-17.943,50.092-69.902,50.092-69.902c-0.3-3.655-0.302-7.552-0.094-11.517
				c1.091-20.767,7.943-43.434,7.943-43.434l-23.924-9.227l8.224-19.601l29.326-6.004c0,0,13.638,65.818,40.938-13.597l4.861-3.467
				l30.457,12.821"/>
			<path clip-path="url(#SVGID_2_)" fill="#23171F" d="M835.395,314.693c0,0,49.616,3.807,66.207,0.627l1.476,12.978
				c0,0-26.396,10.443-67.711-0.094C835.366,328.204,834.479,322.162,835.395,314.693z"/>
			<path clip-path="url(#SVGID_2_)" fill="#BF7F52" d="M899.1,224.472c0,0-30.368-7.175-38.585-9.473l0,0
				c0,0-2.557,20.076,16.017,23.206c5.179,0.873,10.723,0.312,16.261-0.068"/>
		</g>
		<path fill="#BF7F52" d="M817.433,286.213c0,0,3.543,10.871,5.132,19.937c0,0,2.371-15.337-3.944-25.818"/>
		<path fill="#023D32" d="M892.792,238.137c10.607-0.727,21.247-0.051,29.607,15.616l2.493-26.898l-22.989-10.458l-4.123,8.43"/>
		<path fill="#E8AA80" d="M900.023,223.3c13.36-9.475,26.965-24.982,29.641-34.478c1.766-6.267,4.941-16.955,6.884-27.887l0,0
			c2.375-13.365,3.316-28.418-1.002-40.757c-7.85-22.428-29.718-30.839-49.343-28.596c-19.625,2.243-40.371,4.486-45.979,22.428
			l-2.703,47.569c0,0-2.903-25.141-19.165-13.365c-16.26,11.775-0.561,40.185,21.307,39.811c0,0,28.037,42.614,43.176,42.614
			C887.658,230.64,893.784,227.724,900.023,223.3"/>
		<path fill="#BF7F52" d="M835.278,165.39c0,0-4.605-2.858-7.609,1.399c0,0,3.984-3.777,8.207,0.051"/>
		<path fill="#BF7F52" d="M836.935,178.91c0,0,2.517-20.886-9.606-24.04c-11.214-2.917-10.759,13.544-1.868,18.577
			c0,0-3.087-2.821-4.921-6.745c-1.834-3.925-1.791-9.259,2.107-10.581C837.268,151.16,836.935,178.91,836.935,178.91z"/>
		<path fill="#23171F" d="M838.81,163.223l4.458,4.057c-2.378-8.982,3.565-31.875,3.565-31.875l4.756-10.721
			c3.566-6.954,1.486-15.336,1.486-15.336c3.566-2.877,9.51,3.999,9.51,3.999c0-1.775-3.566-7.999-3.566-7.999
			s5.386,5.673,11.187,4.592l-3.145-21.258c0,0-6.854-8.331-16.958-7.751l8.479,7.751l-16.801-3.557v3.557
			c0,0-13.67,17.274-24.964,20.119H829.3c0,0-4.755,12.696-12.482,18.492c-7.727,5.795,4.758,18.501,4.758,18.501"/>
		<circle fill="#23171F" cx="874.221" cy="154.87" r="5.534"/>
		<circle fill="#23171F" cx="920.688" cy="159.502" r="5.534"/>
		<g>
			<defs>
				<path id="SVGID_7_" d="M900.022,223.298c26.716,2.751,25.431,62.292,25.431,62.292c38.129-38.689,33.211-85.229,33.211-85.229
					c9.66,15.139,8.282,46.539,8.282,46.539c28.597-49.904,7.289-96.443-15.139-119.432c-22.43-22.99-17.383-60.558-26.354-62.801
					c-8.971-2.243-28.596,15.14-44.856,14.791c-16.261-0.349-16.524,15.587-16.524,15.587c3.628,18.965,23.813,36.347,35.589,40.833
					c0,0-12.336-11.672-10.654-25.181c0,0,19.863,44.277,47.541,50.237c-1.942,10.932-4.843,20.734-6.608,27.002
					c-2.676,9.494-16.556,25.888-29.916,35.362"/>
			</defs>
			<use xlink:href="#SVGID_7_"  overflow="visible" fill="#23171F"/>
			<clipPath id="SVGID_4_">
				<use xlink:href="#SVGID_7_"  overflow="visible"/>
			</clipPath>
			<path clip-path="url(#SVGID_4_)" fill="#18514A" d="M946.554,121.168c0,0,20.953,29.09,25.439,54.982
				c4.485,25.893,5.046,50.284-5.047,70.75l30.559-44.577l-46.259-82.705L946.554,121.168z"/>
		</g>
		<path fill="#23171F" d="M909.73,148.271c-1.327-0.92-0.884-6.814,6.502-10.042c7.386-3.227,15.998,4.427,15.998,4.427
			s-7.463-1.777-12.62,1.109"/>
		<path fill="#23171F" d="M885.072,145.062c1.327-0.92,0.884-6.815-6.502-10.042s-15.998,4.428-15.998,4.428
			s7.463-1.779,12.62,1.107"/>
		<g>
			<defs>
				<path id="SVGID_9_" d="M872.933,178.393c0,0,30.238,5.14,48.389,2.904c0,0-19.044,34.39-35.398,31.399
					C869.568,209.707,872.933,178.393,872.933,178.393z"/>
			</defs>
			<use xlink:href="#SVGID_9_"  overflow="visible" fill="#C54B4C"/>
			<clipPath id="SVGID_6_">
				<use xlink:href="#SVGID_9_"  overflow="visible"/>
			</clipPath>
			<path clip-path="url(#SVGID_6_)" fill="#E06969" d="M885.923,170.643c0,0,26.492,12.149,24.881,30.092
				c-1.611,17.943-30.415,18.69-30.415,18.69l-19.043-37.413"/>
			<path clip-path="url(#SVGID_6_)" fill="#FFFFFF" d="M924.893,182.045c0,0-18.279,15.326-56.987-1.869l2.335-4.486h51.081"/>
		</g>
		<path fill="#18514A" d="M925.309,277.733c0,0,32.278-54.062,7.326-99.479c0,0,16.368,38.088-8.54,85.425"/>
		<path fill="#822419" d="M833.496,513.801c4.486,30.278,5.607,30.278-23.71,31.399c-29.318,1.121-21.708-9.532-11.615-28.035
			c0.389-0.713,0.783-1.504,1.18-2.366h-0.001c3.142-5.939-4.179-19.502-4.179-19.502s19.181-7.47,47.372,3
			c0,0-10.195,7.11-9.316,13.35"/>
		<path fill="#822419" d="M973.745,542.841c-6.269,2.405-16.172,1.726-26.167,2.44c-24.671,1.763-16.261-12.417-9.325-25.874
			c0.768-1.488,1.028-4.873,0.002-6.502c-1.027-1.628-9.438-7.796-9.438-7.796s23.211-14.638,39.284-12.395
			c0,0,25.478,44.449,5.947,50.124"/>
	</g>
	<g>
		<path fill="#080907" d="M325.833,530.319c0,0,0.472,5.545-1.127,7.327s-4.477,7.698,8.633,9.536c13.11,1.839,13.75,0,13.75,0
			s0.319-3.816,0-8.023c-0.32-4.206-17.906-16.677-17.906-16.677"/>
		<path fill="#080907" d="M312.601,537.646c0,0,2.833,4.341,4.111,6.366c1.279,2.026,0.32,4.05-10.551,2.771
			c-10.872-1.278-15.559-5.542-15.559-5.542l1.489-12.363l16.627-6.396"/>
		<path fill="#EAEAE8" d="M293.586,331.488c0,0,8.525-34.959,27.284-36.238s23.021,4.689,23.021,4.689s21.744-2.131,28.991,3.41
			c0,0-25.152-1.279-39.648,23.875c0,0,12.001,8.985,18.758,12.363c14.497,7.248,32.4,69.491-3.837,196.964
			c0,0-4.262,7.246-17.052-10.232c0,0-12.362,10.225-20.036,11.721c0,0-4.265-8.31-5.97-10.867c0,0-2.558,7.246-6.395,8.1
			s-8.101,2.132-8.101,5.969c0,0-9.38-11.937-11.084-20.89c-1.705-8.953-13.644-65.655-12.364-82.282c0,0-3.837,19.185-4.263,45.191
			c0,0-9.381-29.169-3.411-65.105c5.969-35.934,10.428-40.743,12.364-55.546C272.972,353.988,282.075,339.588,293.586,331.488z"/>
		<path fill="#080907" d="M267.154,437.739c0,0-3.837,19.186-4.263,45.192c0,0-9.381-29.17-3.411-65.106
			c5.969-35.934,10.428-40.742,12.364-55.546c1.127-8.62,10.23-23.021,21.741-31.121c0,0,0.23-0.952,0.703-2.547l0.091,0.023
			c0,0,3.147-3.436,7.305-3.436c4.156,0-3.652,7.993-3.652,7.993s-15.832,6.745-20.221,15.213
			c-4.388,8.467-2.026,22.518-4.585,32.43c-2.558,9.912-5.431,38.371-6.072,57.234"/>
		<path fill="#080907" d="M299.979,314.277c4.472-9.035,11.361-18.378,20.891-19.027c18.759-1.279,23.021,4.689,23.021,4.689
			s21.744-2.131,28.991,3.41c0,0-25.152-1.279-39.648,23.875c-11.73-8.205-23.876-4.903-23.876-4.903s4.477-6.715,0-11.511
			c-4.477-4.797-9.374,3.467-9.374,3.467"/>
	</g>
	<g>
		<path fill="#080907" d="M364.798,544.657c12.69,0.421,34.448,1.219,36.312,0.037c1.862-1.182-3.88-3.805-20.168-6.453"/>
		<path fill="#080907" d="M391.022,531.846c0,0-0.548,6.303,2.683,6.973c3.23,0.671,24.192,0.597,24.64-1.191
			s-4.566-5.663-10.976-3.577v0.014l-12.445-7.539"/>
		<path fill="none" stroke="#EAEAE8" stroke-miterlimit="10" d="M406.013,366.308c-0.359,0.744-0.704,1.52-1.028,2.326
			c0,0,15.2,5.662,16.988,30.997c1.789,25.334-0.596,83.453-12.219,113.854c0,0-1.123,15.343-2.385,20.564
			c-2.088,8.644-6.559-3.726-13.414-4.749"/>
		<path fill="#EAEAE8" d="M373.278,363.005c-1.911,2.789-3.166,4.747-3.166,4.747s-8.345,6.558-11.624,12.816
			c-3.278,6.259-15.201,35.169-17.287,48.581s-1.191,36.363,6.558,56.332c1.244,3.208,2.39,6.348,3.435,9.356
			c5.459,15.722,8.189,27.899,8.189,27.899s-17.287,12.22-16.394,14.902c0.895,2.683,20.864,0,20.864,0s-1.488,3.577-0.595,6.26
			c0.895,2.682,17.585-1.491,20.565-9.836c0,0,5.078,0.701,10.135-4.744l-0.004-0.005c6.855,1.022,11.326,13.392,13.414,4.749
			c1.262-5.223,2.385-20.565,2.385-20.565c11.623-30.401,14.008-88.521,12.219-113.855c-1.788-25.333-16.988-30.996-16.988-30.996
			c0.324-0.807,0.669-1.581,1.028-2.326c9.22-19.067,29.372-18.239,29.372-18.239c-5.663-5.066-23.843-1.49-28.017-3.278
			c-8.241-3.531-12.519-3.875-18.777,0c-2.032,1.258-4.695,4.12-7.362,7.412c-5.546,6.842-11.116,15.537-11.116,15.537
			s-8.345,6.558-11.624,12.816c-3.278,6.259-15.201,35.169-17.287,48.581s-1.191,36.363,6.558,56.332
			c1.244,3.208,2.39,6.348,3.435,9.356"/>
		<path fill="#080907" d="M359.383,522.724c0,0-17.287,12.221-16.394,14.903c0.895,2.683,20.864,0,20.864,0
			C366.761,531.74,362.288,533.678,359.383,522.724z"/>
		<path fill="#080907" d="M406.013,366.308c9.22-19.068,29.372-18.239,29.372-18.239c-5.663-5.067-23.843-1.491-28.017-3.279
			c-8.241-3.531-12.519-3.875-18.777,0c-2.032,1.259-4.695,4.122-7.362,7.413h0.001c2.965-0.931,8.106-1.378,4.977,11.141
			c0,0,13.018,0.793,19.81,2.967"/>
		<path fill="#080907" d="M375.979,359.357c-2.694,4.091-4.514,8.062-2.961,9.797c3.8,4.247,5.142,2.906,5.142,2.906
			s6.706-14.753,8.494,2.012c0,0-15.976,19.528-16.766,27.048c-0.789,7.521-8.047,20.342-8.047,20.342s-1.118,4.918,2.683,13.859
			c3.8,8.941,10.282,29.06,8.047,42.248c-2.235,13.189-4.918,21.46-8.941,17.213s1.342-18.33-4.694-29.507
			c-6.035-11.177-9.611-16.766-9.611-16.766s3.129,5.142,3.576,9.389s-0.503,32.285-1.704,36.932l-0.002-0.005
			c-1.045-3.01-2.19-6.148-3.435-9.356c-7.749-19.969-8.644-42.919-6.558-56.331s14.009-42.323,17.287-48.583
			c3.279-6.259,11.624-12.816,11.624-12.816s2.475-3.862,5.768-8.465"/>
	</g>
	<g>
		<path fill="#080907" d="M239.126,538.239c0,0,11.353-1.898,15.694,3.844l-5.662,0.895l-10.811-2.52"/>
		<path fill="#EAEAE8" d="M239.136,408.724c0,0-21.006,8.402-29.409,23.527c-8.402,15.126-13.444,39.073-10.924,62.182
			c2.521,23.105,4.201,27.728,4.201,27.728s-19.325,13.864-20.166,15.546c-0.841,1.68-1.891,7.562,14.914,3.15
			c16.806-4.412,22.898-4.202,25.839-1.471c2.941,2.731,0,6.722,13.024,6.722s15.335-1.05,15.335-1.05s-2.73-3.151-9.453-4.622
			c-6.722-1.471-4.832-12.394-4.832-12.394s15.966-21.006,22.268-47.686c6.302-26.678,3.571-60.499,3.571-60.499
			s6.933-13.234,27.099-5.671c0,0-1.89-4.412-11.763-8.823c-9.874-4.411-7.982-10.714-20.168-10.714
			C250.479,394.649,246.278,403.473,239.136,408.724z"/>
		<path fill="#080907" d="M265.823,416.965c-4.265,2.182-10.161-3.442-13.033-5.543c-2.87-2.101,2.731-5.182,0-9.383
			c-2.73-4.202-9.201,2.771-10.472,4.023c-1.27,1.253-3.602,6.06-1.082,7.109c2.521,1.051,11.554-4.832,8.613,1.681
			c0,0-6.513,16.386-6.513,22.898c0,6.511-3.15,14.283,3.257,26.048c6.406,11.764,2.206,47.056-8.298,48.946
			s5.462-25.208-10.714-45.375c0,0,10.714,24.157-1.05,32.561c-11.765,8.402-7.295,13.794-4.202,21.218
			c2.102,5.041,1.823,18.902,1.823,18.902l0.002-0.003c-0.161-0.213-0.347-0.423-0.564-0.624c-2.94-2.731-9.033-2.941-25.839,1.47
			c-16.805,4.412-15.755-1.47-14.914-3.15s20.166-15.546,20.166-15.546s-1.68-4.62-4.201-27.729
			c-2.521-23.107,2.521-47.055,10.924-62.181c8.403-15.125,29.409-23.527,29.409-23.527c7.143-5.251,11.344-14.075,19.536-14.075
			c12.186,0,10.294,6.303,20.168,10.714c9.873,4.412,11.763,8.823,11.763,8.823c-13.738-5.152-21.336-0.651-24.782,2.74"/>
		<path fill="#080907" d="M234.355,546.146c4.881-1.261,3.241-12.174,3.241-12.174l-0.004-0.003c0.404,2.842,1.638,5.79,4.904,6.505
			c6.723,1.471,9.453,4.621,9.453,4.621s-2.311,1.051-15.335,1.051"/>
	</g>
	<g>
		<path fill="#080907" d="M629.716,544.14c14.193,0.471,38.527,1.363,40.61,0.042s-4.339-4.255-22.556-7.217"/>
		<path fill="#080907" d="M659.046,529.812c0,0-0.613,7.049,3,7.799s27.057,0.667,27.557-1.333s-5.107-6.333-12.275-4v0.015
			l-13.918-8.432"/>
		<path fill="none" stroke="#EAEAE8" stroke-miterlimit="10" d="M675.811,344.677c-0.402,0.832-0.787,1.699-1.15,2.601
			c0,0,17,6.333,19,34.667c2,28.333-0.666,93.333-13.666,127.333c0,0-1.256,17.159-2.667,23c-2.335,9.666-7.335-4.167-15.002-5.312"
			/>
		<path fill="#EAEAE8" d="M639.2,340.982c-2.137,3.119-3.54,5.31-3.54,5.31s-9.333,7.333-13,14.333s-17.001,39.333-19.334,54.333
			s-1.332,40.668,7.334,63.001c1.392,3.588,2.672,7.099,3.841,10.464c6.105,17.583,9.159,31.202,9.159,31.202
			s-19.334,13.667-18.334,16.667s23.334,0,23.334,0s-1.665,4-0.665,7s19.667-1.667,23-11c0,0,5.68,0.784,11.334-5.306l-0.004-0.006
			c7.667,1.145,12.667,14.978,15.002,5.312c1.411-5.841,2.667-23,2.667-23c13-34,15.666-99,13.666-127.334
			c-2-28.333-19-34.666-19-34.666c0.363-0.902,0.748-1.769,1.15-2.602c10.311-21.324,32.85-20.398,32.85-20.398
			c-6.334-5.666-26.666-1.667-31.334-3.667c-9.217-3.949-14-4.333-21,0c-2.273,1.407-5.251,4.608-8.234,8.29
			c-6.202,7.652-12.432,17.377-12.432,17.377s-9.333,7.333-13,14.333s-17.001,39.333-19.334,54.333s-1.332,40.668,7.334,63.001
			c1.392,3.588,2.672,7.099,3.841,10.464"/>
		<path fill="#080907" d="M623.66,519.61c0,0-19.334,13.667-18.334,16.667s23.334,0,23.334,0
			C631.911,529.694,626.909,531.86,623.66,519.61z"/>
		<path fill="#080907" d="M675.811,344.677c10.311-21.326,32.85-20.399,32.85-20.399c-6.334-5.667-26.666-1.667-31.334-3.667
			c-9.217-3.949-14-4.334-21,0c-2.273,1.408-5.251,4.609-8.234,8.29l0.001,0.001c3.316-1.041,9.066-1.541,5.566,12.459
			c0,0,14.559,0.887,22.154,3.318"/>
		<path fill="#080907" d="M642.221,336.903c-3.014,4.575-5.048,9.017-3.312,10.957c4.25,4.75,5.75,3.25,5.75,3.25s7.5-16.5,9.5,2.25
			c0,0-17.867,21.84-18.75,30.25s-9,22.75-9,22.75s-1.25,5.5,3,15.5s11.5,32.5,9,47.25s-5.5,24-10,19.25s1.5-20.5-5.25-33
			s-10.75-18.75-10.75-18.75s3.5,5.75,4,10.5s-0.562,36.107-1.906,41.304l-0.002-0.006c-1.169-3.365-2.449-6.876-3.841-10.464
			c-8.666-22.333-9.667-48-7.334-63s15.667-47.334,19.334-54.334s13-14.334,13-14.334s2.768-4.319,6.45-9.467"/>
	</g>
	<g>
		<path fill="#080907" d="M471.065,531.358c0,0,0.369,4.336-0.881,5.729s-3.5,6.019,6.75,7.456s10.75,0,10.75,0s0.25-2.984,0-6.273
			s-14-13.039-14-13.039"/>
		<path fill="#080907" d="M460.72,537.088c0,0,2.215,3.394,3.215,4.978s0.25,3.166-8.25,2.166s-12.164-4.333-12.164-4.333
			l1.164-9.667l13-5"/>
		<path fill="#EAEAE8" d="M445.853,375.898c0,0,6.666-27.333,21.333-28.333s18,3.666,18,3.666s17.001-1.666,22.667,2.667
			c0,0-19.666-1.001-31,18.667c0,0,9.383,7.025,14.666,9.666c11.335,5.667,25.333,54.333-3,154c0,0-3.332,5.666-13.332-8
			c0,0-9.666,7.994-15.666,9.164c0,0-3.334-6.497-4.667-8.497c0,0-2,5.666-5,6.333s-6.333,1.667-6.333,4.667
			c0,0-7.334-9.333-8.667-16.333s-10.667-51.334-9.667-64.334c0,0-3,15-3.333,35.334c0,0-7.334-22.807-2.667-50.904
			c4.667-28.096,8.153-31.855,9.667-43.43C429.735,393.491,436.853,382.231,445.853,375.898z"/>
		<path fill="#080907" d="M425.187,458.974c0,0-3,15-3.333,35.334c0,0-7.334-22.807-2.667-50.904
			c4.667-28.096,8.153-31.855,9.667-43.43c0.882-6.74,7.999-18,16.999-24.333c0,0,0.181-0.744,0.55-1.991l0.071,0.019
			c0,0,2.461-2.687,5.711-2.687s-2.855,6.25-2.855,6.25s-12.379,5.273-15.81,11.895c-3.431,6.62-1.585,17.605-3.585,25.355
			s-4.246,30.001-4.748,44.75"/>
		<path fill="#080907" d="M450.852,362.442c3.496-7.064,8.883-14.369,16.334-14.877c14.667-1,18,3.666,18,3.666
			s17.001-1.666,22.667,2.667c0,0-19.666-1.001-31,18.667c-9.172-6.415-18.668-3.834-18.668-3.834s3.5-5.25,0-9
			s-7.329,2.711-7.329,2.711"/>
	</g>
	<g>
		<path fill="#080907" d="M544.137,534.959c0,0,13.987-2.339,19.337,4.736l-6.977,1.102l-13.319-3.104"/>
		<path fill="#EAEAE8" d="M544.148,375.376c0,0-25.883,10.354-36.236,28.989c-10.354,18.637-16.565,48.144-13.46,76.616
			c3.106,28.471,5.177,34.165,5.177,34.165s-23.812,17.083-24.848,19.154c-1.036,2.07-2.33,9.317,18.377,3.882
			s28.213-5.177,31.837-1.812s0,8.282,16.048,8.282s18.895-1.294,18.895-1.294s-3.364-3.883-11.647-5.694
			c-8.282-1.812-5.953-15.271-5.953-15.271s19.672-25.882,27.437-58.755c7.765-32.871,4.4-74.545,4.4-74.545
			s8.541-16.307,33.39-6.987c0,0-2.329-5.436-14.494-10.871c-12.166-5.436-9.836-13.201-24.849-13.201
			C558.126,358.034,552.949,368.905,544.148,375.376z"/>
		<path fill="#080907" d="M577.031,385.529c-5.254,2.688-12.52-4.24-16.059-6.829c-3.537-2.588,3.365-6.385,0-11.561
			c-3.364-5.178-11.338,3.414-12.902,4.957c-1.564,1.544-4.438,7.466-1.333,8.761c3.106,1.294,14.235-5.954,10.612,2.07
			c0,0-8.024,20.189-8.024,28.214c0,8.022-3.882,17.6,4.013,32.095c7.894,14.495,2.718,57.979-10.225,60.309
			c-12.941,2.33,6.73-31.06-13.2-55.908c0,0,13.2,29.766-1.294,40.12c-14.495,10.353-8.988,16.996-5.178,26.143
			c2.589,6.212,2.247,23.291,2.247,23.291l0.002-0.004c-0.199-0.263-0.428-0.521-0.695-0.769c-3.624-3.365-11.13-3.624-31.837,1.812
			s-19.413-1.812-18.377-3.883c1.035-2.07,24.848-19.154,24.848-19.154s-2.07-5.693-5.177-34.166
			c-3.105-28.472,3.106-57.979,13.46-76.615s36.236-28.989,36.236-28.989c8.801-6.471,13.978-17.343,24.072-17.343
			c15.013,0,12.683,7.766,24.849,13.201c12.165,5.436,14.494,10.871,14.494,10.871c-16.928-6.349-26.289-0.803-30.535,3.376"/>
		<path fill="#080907" d="M538.258,544.7c6.015-1.553,3.994-15.001,3.994-15.001l-0.004-0.002c0.498,3.501,2.017,7.134,6.042,8.015
			c8.283,1.812,11.647,5.694,11.647,5.694s-2.847,1.294-18.895,1.294"/>
	</g>
</g>
</svg>
