<?xml version="1.0" encoding="utf-8"?>
<!-- Generator: Adobe Illustrator 16.0.0, SVG Export Plug-In . SVG Version: 6.00 Build 0)  -->
<!DOCTYPE svg PUBLIC "-//W3C//DTD SVG 1.1//EN" "http://www.w3.org/Graphics/SVG/1.1/DTD/svg11.dtd">
<svg version="1.1" xmlns="http://www.w3.org/2000/svg" xmlns:xlink="http://www.w3.org/1999/xlink" x="0px" y="0px" width="600px"
	 height="600px" viewBox="0 0 600 600" enable-background="new 0 0 600 600" xml:space="preserve">
<g id="Layer_1">
	<g>
		<defs>
			<rect id="SVGID_1_" x="0" width="600" height="600"/>
		</defs>
		<clipPath id="SVGID_2_">
			<use xlink:href="#SVGID_1_"  overflow="visible"/>
		</clipPath>
		<g clip-path="url(#SVGID_2_)">
			<g>
				<defs>
					<path id="SVGID_3_" d="M34.167,600c29.026-30.894,83.242-77.099,147.53-97.479s68.917-68.684,68.917-68.684l86.15-55.97
						l19.829,93.007c0,0,4.29,28.373,86,47.82C508.678,534.423,565.832,600,565.832,600L172.75,666.387L34.167,600z"/>
				</defs>
				<use xlink:href="#SVGID_3_"  overflow="visible" fill="#E8AA80"/>
				<clipPath id="SVGID_4_">
					<use xlink:href="#SVGID_3_"  overflow="visible"/>
				</clipPath>
				<path clip-path="url(#SVGID_4_)" fill="#BF7F52" d="M237.439,437.039c0,0,77.981-17.28,117.598-68.053
					c0,0-28.14,85.609-117.598,93.586"/>
				<path clip-path="url(#SVGID_4_)" fill="#006050" d="M389.718,500.659c0,116.989-203.754,120.534-203.754,0.429
					C118.928,389.431,20.876,607.526,20.876,607.526l578.185,33.229C599.061,640.755,518.35,478.523,389.718,500.659z"/>
			</g>
			<path fill="#E8AA80" d="M137.6,200.861c0,0-2.955,23.04,0,36.037c2.954,12.998,5.316,17.75,5.021,26.598
				s-15.95,40.75-14.769,56.996c1.182,16.246,31.016,111.654,86.252,117.562s107.52-51.396,120.812-63.212l8.542-206.473
				l-120.052-49.625l-76.796,22.301"/>
			<path fill="#FFFFFF" d="M261.366,251.372c0,0-10.634-1.577-17.428,12.124c-2.907,5.865-5.498,36.865,17.667,37.83
				c13.349,0.557,27.674-13.326,24.056-39.024"/>
			<path fill="#23171F" d="M245.164,290.672c2.023,7.223,24.177,25.462,40.497-8.654
				C285.661,282.019,266.032,315.455,245.164,290.672z"/>
			<path fill="#FFFFFF" d="M183.225,274.839c0,0-1.614,17.545-16.088,20.262c0,0-11.525-0.534-14.325-10.127
				s-5.212-27.688,3.059-34.555c8.271-6.868,17.143-2.343,17.143-2.343"/>
			<path fill="#23171F" d="M150.153,266.732c0,0,0.961,36.332,23.856,25.48C174.01,292.213,151.041,308.897,150.153,266.732z"/>
			<ellipse fill="#35140E" cx="272.054" cy="271.362" rx="15.6" ry="21.732"/>
			<ellipse fill="#35140E" cx="171.429" cy="269.17" rx="12.334" ry="19.375"/>
			<path fill="#23171F" d="M186.043,226.19c2.215-2.658-0.887-15.729-16.394-19.717s-29.243,17.059-29.243,17.059
				s13.751-7.311,24.819-3.102"/>
			<path fill="#23171F" d="M237.439,267.871c0,0,32.788-38.579,55.385,11.046C292.824,278.917,279.09,216.496,237.439,267.871z"/>
			<path fill="#23171F" d="M224.764,228.218c-4.209-4.873,0.564-22.469,25.747-22.247c25.181,0.222,36.554,6.928,43.643,21.992
				c0,0-27.471-11.467-42.616-6.206C240.416,225.622,228.973,233.092,224.764,228.218z"/>
			<path fill="#23171F" d="M218.203,94.412c0,0-0.46-12.347-9.276-13.021c-8.814-0.673-25.123,1.911-32.476,6.511
				c0,0,6.213,1.136,6.694,4.21c0,0-15.832,1.736-20.327,5.439c0,0,9.886-0.673,13.632,3.367c0,0-17.041-3.367-23.787,2.02
				c0,0,10.529,0.336,13.481,3.703c2.953,3.366,12.094,4.713,12.094,4.713s-24.159-1.011-31.994,3.367
				c8.162,3.029,10.656,8.08,10.656,8.08c-11.218-4.713-16.207,3.03-16.207,3.03c3.917,3.029,4.57,7.065,4.57,7.065
				c-11.752,0.333-19.262,14.48-19.262,14.48c5.372-1.107,11.425,1.851,14.365,7.069c-10.773,0-16.65,13.468-16.65,13.468
				c10.774-5.723,16.977-2.694,16.977-2.694c-9.795,14.813-2.565,35.641-2.565,35.641c6.855-19.863,24.689-38.334,24.689-38.334
				h-5.475c1.96-5.049,12.066-7.406,12.066-7.406c-3.932-2.02-6.591,0-6.591,0c10.046-11.11,27.265-9.763,27.265-9.763
				c-1.541-3.367-6.623-5.233-6.623-5.233c8.084-0.104,16.704,2.541,16.704,2.541l-6.256-7.241c3.265,4.88,15.344,3.538,12.08,2.527
				c-3.266-1.01-3.918-5.054-3.918-5.054c8.815,6.729,19.919,0,19.919,0"/>
			<path fill="#23171F" d="M180.964,98.156"/>
			<path fill="#BF7F52" d="M183.764,302.317c0,0-7.272,13.152-12.245,17.878s-20.333,18.314,4.554,30.129
				c0,0-14.334-13.398-8.641-20.085C177.181,318.791,183.764,302.317,183.764,302.317z"/>
			<path fill="#23171F" d="M183.508,267.871c0,0-9.207-37.25-36.898-8.892C155.913,241.625,181.317,230.991,183.508,267.871z"/>
			<path fill="#E06969" d="M180.775,376.062c0,0-9.354,17.833,7.926,20.491s14.999-18.451,29.677-27.567"/>
			<path fill="#C24837" d="M173.013,366.867c0,0,8.599,20.825,64.426-9.305C237.439,357.562,183.508,396.207,173.013,366.867z"/>
			<path fill="#C54B4C" d="M196.641,377.107c0,0-6.167,7.262-6.833,10.807c0,0,1.736-8.585,3.416-10.274"/>
			<path fill="#23171F" d="M331.312,369.576c-10.82,78.935-34.467,101.038-34.467,101.038c20.867-28.418,19.167-187.137-3.4-228.815
				c-22.567-41.678-32.925-107.45-38.797-114.078c-5.872-6.629-19.475,9.472-19.475,9.472s-51.627,9.786-16.385-66.307
				c35.242-76.094,108.198,29.364,130.147,39.467L298.236,65.5c0,0,24.421,11.383,52.244,22.749
				c27.823,11.367,73.266,31.893,87.796,82.095c14.53,50.203,36.941,194.338-32.924,273.274c0,0,27.823-80.357,18.549-127.402
				c0,0,0.309,108.14-47.762,160.554c-39.107,42.638-120.254,75.303-120.254,75.303s66.749-61.087,66.452-136.947"/>
			<path fill="#18514A" d="M296.845,64.379c0,0,29.325,32.716,48.227,43.764c67.232,39.297,79.755,204.463,66.442,298.009
				c0,0,24.598-82.043,11.923-196.339C412.931,115.069,371.505,97.034,353.274,89.4C335.044,81.766,306.873,69.798,296.845,64.379"
				/>
			<path fill="#18514A" d="M322.336,417.988c-3.079,80.296-66.452,134.085-66.452,134.085
				c64.839-37.118,85.025-111.197,91.705-156.387c10.958-74.114,10.001-136.953-17.557-220.143
				C349.836,303.095,322.336,417.988,322.336,417.988z"/>
			<path fill="#23171F" d="M181.628,138.332c0,0-16.076,22.505,1.496,56.179c0,0,1.695-16.37,3.521-35.446
				c0,0,23.279,71.76,62.039,88.522c0,0-34.356-48.498-33.603-64.153c0,0,39.189,82.168,100.339,85.835
				c-1.176-34.881-29.987-121.83-29.987-121.83l-51.939-49.283"/>
		</g>
	</g>
</g>
<g id="Layer_2">
</g>
<g id="Layer_3">
</g>
</svg>
